<?xml version="1.0" encoding="utf-8"?>
<!-- Generator: Adobe Illustrator 16.0.3, SVG Export Plug-In . SVG Version: 6.00 Build 0)  -->
<!DOCTYPE svg PUBLIC "-//W3C//DTD SVG 1.1//EN" "http://www.w3.org/Graphics/SVG/1.1/DTD/svg11.dtd">
<svg version="1.1" id="Layer_1" xmlns="http://www.w3.org/2000/svg" xmlns:xlink="http://www.w3.org/1999/xlink" x="0px" y="0px"
	 width="209.465px" height="130.475px" viewBox="0 0 209.465 130.475" enable-background="new 0 0 209.465 130.475"
	 xml:space="preserve">
<g>
	<rect x="138.292" y="77.11" fill="#686969" width="36.735" height="22.179"/>
	<rect x="136.1" y="77.11" fill="#0F100F" width="2.192" height="22.179"/>
	<g>
		<polygon fill="#359BAC" points="137.654,44.66 137.197,45.076 137.197,51.242 137.654,51.701 137.654,54.105 149.863,54.105 
			149.863,44.244 137.654,44.244 		"/>
		<rect x="138.032" y="46.535" width="6.691" height="1.457"/>
		<rect x="137.579" y="48.666" width="0.771" height="1.459"/>
		<rect x="148.254" y="50.16" fill="#727273" width="2.896" height="2.166"/>
		<rect x="147.729" y="44.951" width="2.477" height="1.584"/>
		<rect x="138.032" y="53.367" width="3.778" height="0.459"/>
		<rect x="137.985" y="44.492" width="2.852" height="0.459"/>
		<rect x="142.021" y="53.367" width="4.608" height="0.459"/>
		<rect x="141.285" y="44.492" width="3.643" height="0.459"/>
		<g>
			<ellipse fill="#DABA39" cx="137.715" cy="48.879" rx="0.137" ry="0.143"/>
			<ellipse fill="#DABA39" cx="138.212" cy="48.879" rx="0.137" ry="0.143"/>
			<circle fill="#DABA39" cx="137.715" cy="49.396" r="0.142"/>
			<circle fill="#DABA39" cx="137.715" cy="49.911" r="0.142"/>
			<circle fill="#DABA39" cx="138.212" cy="49.396" r="0.142"/>
			<circle fill="#DABA39" cx="138.212" cy="49.911" r="0.142"/>
		</g>
	</g>
	<g>
		<path fill="#BC232B" d="M135.611,97.825c-0.075,0.002-7.518,0.199-8.636-5.439c-1.09-5.497-0.684-15.176-0.68-15.273
			c0.005-0.043,0.315-3.105-1.427-5.217c-1.008-1.221-2.507-1.896-4.457-2.01l0.022-0.406c2.064,0.12,3.659,0.846,4.74,2.156
			c1.852,2.246,1.531,5.377,1.518,5.51c-0.004,0.082-0.408,9.713,0.672,15.159c1.052,5.301,8.162,5.116,8.233,5.114L135.611,97.825z
			"/>
		<path fill="#BC232B" d="M126.713,76.241c0,0.012-0.001,0.019-0.001,0.021l-0.396-0.012c0.001-0.005,0.012-0.895-0.733-1.674
			c-0.798-0.834-2.134-1.254-3.97-1.248l-0.001-0.406c1.954-0.008,3.388,0.457,4.263,1.379
			C126.678,75.148,126.713,76.087,126.713,76.241z"/>
		<g>
			<path fill="#121212" d="M135.612,94.451c-0.075,0.003-7.521,0.211-8.638-5.731c-1.089-5.795-0.683-16.002-0.679-16.105
				l0.397,0.018c-0.005,0.102-0.409,10.264,0.672,16.012c1.052,5.599,8.161,5.403,8.232,5.401L135.612,94.451z"/>
			<path fill="#121212" d="M126.713,72.867c0,0.013-0.001,0.019-0.001,0.021l-0.494-0.012c0.001-0.004,0.015-0.893-0.913-1.673
				c-0.993-0.835-2.656-1.255-4.941-1.249l-0.002-0.405c2.433-0.007,4.218,0.457,5.307,1.378
				C126.67,71.774,126.713,72.714,126.713,72.867z"/>
			<path fill="#121212" d="M126.545,76.091c0,0.012,0,0.018,0,0.021l-0.396-0.013c-0.002-0.01,0.013-0.952-0.754-1.752
				c-0.748-0.782-1.964-1.175-3.614-1.169l-0.002-0.407c1.768-0.007,3.082,0.431,3.907,1.298
				C126.511,74.938,126.545,75.931,126.545,76.091z"/>
		</g>
	</g>
	<g>
		<path fill="#64B94D" d="M141.324,57.824c0,3.352-0.934,7.773-5.366,9.884c-7.5,3.575-14.396,5.779-14.465,5.801l-0.101-0.334
			c0.068-0.021,6.943-2.22,14.421-5.783c5.336-2.542,5.414-8.589,5.041-11.761c-0.032,0.912-0.123,2.042-0.342,3.218
			c-0.684,3.687-2.299,6.143-4.672,7.104c-5.611,2.268-15.55,4.479-15.649,4.5l-0.072-0.342c0.1-0.021,10.011-2.227,15.597-4.484
			c5.479-2.215,4.786-11.954,4.779-12.05l0.334-0.062C140.84,53.559,141.324,55.414,141.324,57.824z"/>
	</g>
	<path fill="#191818" d="M141.81,43.877c0,0.15-0.011,0.289-0.028,0.409l-0.311-0.048c0.01-0.07,0.234-1.708-0.977-1.997
		l-0.257-0.063c-1.227-0.306-4.487-1.12-6.276,0.302c-0.807,0.641-1.223,1.677-1.238,3.082c-0.017,1.409,0.142,3.245,0.31,5.192
		c0.522,6.096,1.175,13.684-2.677,15.762c-4.954,2.672-9.758,3.389-9.806,3.395l-0.044-0.318c0.048-0.008,4.8-0.717,9.703-3.363
		c3.666-1.976,3.025-9.445,2.51-15.447c-0.168-1.954-0.326-3.802-0.311-5.224c0.017-1.506,0.474-2.627,1.359-3.333
		c1.908-1.516,5.276-0.676,6.545-0.36l0.252,0.062C141.556,42.164,141.81,43.152,141.81,43.877z"/>
	<path fill="#606161" d="M120.787,69.909c-1.639,1.199-2.459,1.574-4.254,2.395c-1.414,0.645-3.349,1.529-6.762,3.286
		c-8.008,4.122-15.908,0.584-19.277-4.839C87.411,65.79,73.248,54.66,65.366,54.436c-1.766-0.05-3.848,0.261-6.007,0.769
		c-7.175,1.689-7.272,0.831-0.023-0.849c2.211-0.512,4.357-0.824,6.206-0.772c8.12,0.231,22.651,11.603,25.802,16.67
		c3.174,5.108,10.58,8.462,18.056,4.612c3.438-1.77,5.468-2.697,6.812-3.31c1.772-0.81,2.506-1.146,4.048-2.273L120.787,69.909z"/>
	<path fill="#606161" d="M122.807,73.173c-0.481,2.603-8.921,11.453-15.863,17.33c-7.186,6.08-13.377,6.008-23.661-0.283
		c-6.176-3.776-14.4-1.117-19.306,1.145c-1.944,1.797-1.194-0.078-0.204-1.1c1.147-0.52,2.461-1.055,3.888-1.527
		c6.409-2.125,11.966-1.92,16.071,0.591c9.958,6.089,15.645,6.176,22.54,0.339c7.812-6.611,15.201-14.89,15.549-16.776
		L122.807,73.173z"/>
	<path fill="#606161" d="M57.856,82.951c0,4.184-3.403,7.586-7.586,7.586s-7.586-3.402-7.586-7.586c0-4.183,3.403-7.585,7.586-7.585
		S57.856,78.769,57.856,82.951z M43.685,82.951c0,3.632,2.955,6.586,6.586,6.586s6.586-2.954,6.586-6.586
		c0-3.631-2.955-6.585-6.586-6.585S43.685,79.32,43.685,82.951z"/>
	<path fill="#606161" d="M59.19,82.951c0,4.919-4.001,8.92-8.92,8.92s-8.92-4.001-8.92-8.92c0-4.918,4.001-8.919,8.92-8.919
		S59.19,78.033,59.19,82.951z M42.351,82.951c0,4.367,3.553,7.92,7.92,7.92s7.92-3.553,7.92-7.92c0-4.366-3.553-7.919-7.92-7.919
		S42.351,78.585,42.351,82.951z"/>
	<path fill="#606161" d="M60.69,82.951c0,5.746-4.674,10.42-10.42,10.42s-10.42-4.674-10.42-10.42
		c0-5.745,4.674-10.419,10.42-10.419S60.69,77.206,60.69,82.951z M40.851,82.951c0,5.195,4.226,9.42,9.42,9.42s9.42-4.225,9.42-9.42
		c0-5.194-4.226-9.419-9.42-9.419S40.851,77.757,40.851,82.951z"/>
	<path fill="#606161" d="M62.357,82.951c0,6.665-5.422,12.087-12.086,12.087s-12.086-5.422-12.086-12.087
		c0-6.664,5.422-12.086,12.086-12.086S62.357,76.287,62.357,82.951z M39.184,82.951c0,6.113,4.973,11.087,11.086,11.087
		s11.086-4.974,11.086-11.087c0-6.112-4.973-11.086-11.086-11.086S39.184,76.839,39.184,82.951z"/>
	<path fill="#606161" d="M63.773,82.951c0,7.445-6.058,13.504-13.503,13.504s-13.503-6.059-13.503-13.504
		c0-7.444,6.058-13.503,13.503-13.503S63.773,75.507,63.773,82.951z M37.768,82.951c0,6.895,5.609,12.504,12.503,12.504
		s12.503-5.609,12.503-12.504c0-6.894-5.609-12.503-12.503-12.503S37.768,76.058,37.768,82.951z"/>
	<path fill="#606161" d="M65.19,82.951c0,8.228-6.693,14.92-14.92,14.92s-14.92-6.692-14.92-14.92
		c0-8.227,6.693-14.919,14.92-14.919S65.19,74.725,65.19,82.951z M36.351,82.951c0,7.676,6.245,13.92,13.92,13.92
		s13.92-6.244,13.92-13.92c0-7.675-6.245-13.919-13.92-13.919S36.351,75.276,36.351,82.951z"/>
	<path fill="#232323" d="M66.357,82.951c0,8.871-7.216,16.087-16.086,16.087s-16.087-7.216-16.087-16.087
		c0-8.87,7.216-16.086,16.086-16.086S66.357,74.081,66.357,82.951z M35.184,82.951c0,8.319,6.768,15.087,15.086,15.087
		s15.086-6.768,15.086-15.087c0-8.318-6.768-15.086-15.086-15.086S35.184,74.633,35.184,82.951z"/>
	<path fill="#606161" d="M66.357,82.951c0,8.871-7.216,16.087-16.086,16.087s-16.087-7.216-16.087-16.087
		c0-8.87,7.216-16.086,16.086-16.086S66.357,74.081,66.357,82.951z M35.184,82.951c0,8.319,6.768,15.087,15.086,15.087
		s15.086-6.768,15.086-15.087c0-8.318-6.768-15.086-15.086-15.086S35.184,74.633,35.184,82.951z"/>
	<path fill="#232323" d="M31.018,82.951c0,10.634,8.621,19.253,19.253,19.253s19.253-8.619,19.253-19.253
		c0-10.633-8.621-19.252-19.253-19.252S31.018,72.318,31.018,82.951z M34.264,81.969c0,0-0.635-0.194-0.635-0.634
		c0,0,0.956-12.641,14.876-14.77c0,0,0.634,0.102,0.634,0.634v9.149c0,0,0.056,0.416-0.497,0.635
		c-0.553,0.217-3.392,1.019-4.352,4.352c0,0-0.032,0.634-0.634,0.634S34.264,81.969,34.264,81.969z M48.5,99.749
		c0,0-12.641-0.954-14.769-14.875c0,0,0.102-0.634,0.634-0.634h9.148c0,0,0.417-0.057,0.634,0.496
		c0.218,0.555,1.02,3.392,4.352,4.352c0,0,0.635,0.032,0.635,0.634c0,0.603,0,9.394,0,9.394S48.941,99.749,48.5,99.749z
		 M66.283,84.141c0,0,0.635,0.193,0.635,0.633c0,0-0.956,12.643-14.876,14.77c0,0-0.634-0.102-0.634-0.633l0-9.148
		c0,0-0.056-0.418,0.498-0.635c0.553-0.219,3.391-1.02,4.351-4.354c0,0,0.032-0.633,0.634-0.633S66.283,84.141,66.283,84.141z
		 M51.529,82.951c0,0.695-0.563,1.259-1.258,1.259s-1.258-0.563-1.258-1.259c0-0.694,0.563-1.258,1.258-1.258
		S51.529,82.257,51.529,82.951z M66.815,81.235c0,0-0.101,0.635-0.634,0.635h-9.148c0,0-0.417,0.055-0.634-0.498
		s-1.02-3.391-4.352-4.352c0,0-0.635-0.031-0.635-0.635c0-0.6,0-9.391,0-9.391s0.194-0.637,0.635-0.637
		C52.046,66.358,64.687,67.315,66.815,81.235z"/>
	<path fill="#606161" d="M57.205,41.511c0,4.183-3.403,7.586-7.586,7.586s-7.586-3.403-7.586-7.586s3.403-7.586,7.586-7.586
		S57.205,37.328,57.205,41.511z M43.033,41.511c0,3.632,2.955,6.586,6.586,6.586s6.586-2.954,6.586-6.586s-2.955-6.586-6.586-6.586
		S43.033,37.879,43.033,41.511z"/>
	<path fill="#606161" d="M58.539,41.511c0,4.919-4.001,8.92-8.92,8.92s-8.92-4.001-8.92-8.92s4.001-8.92,8.92-8.92
		S58.539,36.592,58.539,41.511z M41.699,41.511c0,4.367,3.553,7.92,7.92,7.92s7.92-3.553,7.92-7.92s-3.553-7.92-7.92-7.92
		S41.699,37.144,41.699,41.511z"/>
	<path fill="#606161" d="M60.039,41.511c0,5.745-4.674,10.42-10.42,10.42s-10.42-4.675-10.42-10.42s4.674-10.42,10.42-10.42
		S60.039,35.766,60.039,41.511z M40.199,41.511c0,5.194,4.226,9.42,9.42,9.42s9.42-4.226,9.42-9.42s-4.226-9.42-9.42-9.42
		S40.199,36.316,40.199,41.511z"/>
	<path fill="#606161" d="M61.705,41.511c0,6.665-5.422,12.087-12.086,12.087s-12.086-5.422-12.086-12.087
		s5.422-12.087,12.086-12.087S61.705,34.846,61.705,41.511z M38.532,41.511c0,6.113,4.973,11.087,11.086,11.087
		s11.086-4.974,11.086-11.087s-4.973-11.087-11.086-11.087S38.532,35.397,38.532,41.511z"/>
	<path fill="#606161" d="M63.122,41.511c0,7.445-6.058,13.503-13.503,13.503s-13.503-6.058-13.503-13.503
		s6.058-13.503,13.503-13.503S63.122,34.065,63.122,41.511z M37.116,41.511c0,6.894,5.609,12.503,12.503,12.503
		s12.503-5.609,12.503-12.503s-5.609-12.503-12.503-12.503S37.116,34.617,37.116,41.511z"/>
	<path fill="#606161" d="M64.539,41.511c0,8.228-6.693,14.92-14.92,14.92s-14.92-6.692-14.92-14.92s6.693-14.92,14.92-14.92
		S64.539,33.283,64.539,41.511z M35.699,41.511c0,7.675,6.245,13.92,13.92,13.92s13.92-6.245,13.92-13.92s-6.245-13.92-13.92-13.92
		S35.699,33.836,35.699,41.511z"/>
	<path fill="#232323" d="M65.705,41.511c0,8.87-7.216,16.087-16.086,16.087s-16.086-7.217-16.086-16.087s7.216-16.087,16.086-16.087
		S65.705,32.641,65.705,41.511z M34.532,41.511c0,8.319,6.768,15.087,15.086,15.087s15.086-6.768,15.086-15.087
		s-6.768-15.087-15.086-15.087S34.532,33.191,34.532,41.511z"/>
	<path fill="#606161" d="M65.705,41.511c0,8.87-7.216,16.087-16.086,16.087s-16.086-7.217-16.086-16.087s7.216-16.087,16.086-16.087
		S65.705,32.641,65.705,41.511z M34.532,41.511c0,8.319,6.768,15.087,15.086,15.087s15.086-6.768,15.086-15.087
		s-6.768-15.087-15.086-15.087S34.532,33.191,34.532,41.511z"/>
	<path fill="#232323" d="M30.366,41.511c0,10.634,8.62,19.252,19.253,19.252s19.253-8.618,19.253-19.252s-8.62-19.253-19.253-19.253
		S30.366,30.877,30.366,41.511z M33.612,40.527c0,0-0.635-0.194-0.635-0.634c0,0,0.956-12.641,14.876-14.769
		c0,0,0.634,0.102,0.634,0.633v9.149c0,0,0.056,0.417-0.497,0.635s-3.392,1.019-4.352,4.352c0,0-0.032,0.634-0.634,0.634
		S33.612,40.527,33.612,40.527z M47.849,58.308c0,0-12.641-0.954-14.769-14.874c0,0,0.102-0.635,0.634-0.635h9.148
		c0,0,0.417-0.056,0.634,0.496c0.218,0.555,1.02,3.393,4.352,4.352c0,0,0.635,0.033,0.635,0.635s0,9.394,0,9.394
		S48.289,58.308,47.849,58.308z M65.631,42.699c0,0,0.635,0.193,0.635,0.634c0,0-0.956,12.642-14.876,14.77
		c0,0-0.634-0.102-0.634-0.634V48.32c0,0-0.056-0.418,0.498-0.635c0.553-0.218,3.391-1.02,4.351-4.353c0,0,0.032-0.634,0.634-0.634
		S65.631,42.699,65.631,42.699z M50.877,41.511c0,0.694-0.563,1.259-1.258,1.259s-1.258-0.564-1.258-1.259s0.563-1.259,1.258-1.259
		S50.877,40.816,50.877,41.511z M66.163,39.794c0,0-0.101,0.635-0.634,0.635H56.38c0,0-0.417,0.056-0.634-0.497
		c-0.217-0.554-1.02-3.392-4.352-4.353c0,0-0.635-0.031-0.635-0.634c0-0.601,0-9.392,0-9.392s0.194-0.636,0.635-0.636
		C51.394,24.918,64.035,25.875,66.163,39.794z"/>
</g>
</svg>
