<?xml version="1.0" encoding="utf-8"?>
<!-- Generator: Adobe Illustrator 16.0.3, SVG Export Plug-In . SVG Version: 6.00 Build 0)  -->
<!DOCTYPE svg PUBLIC "-//W3C//DTD SVG 1.1//EN" "http://www.w3.org/Graphics/SVG/1.1/DTD/svg11.dtd">
<svg version="1.1" id="Layer_1" xmlns="http://www.w3.org/2000/svg" xmlns:xlink="http://www.w3.org/1999/xlink" x="0px" y="0px"
	 width="201.384px" height="102.192px" viewBox="0 0 201.384 102.192" enable-background="new 0 0 201.384 102.192"
	 xml:space="preserve">
<g>
	<path fill="#3E78B8" d="M155.999,59.879c-5.681,0-8.895-0.132-8.895-2.846V45.878h1v11.155c0,1.567,2.068,1.846,7.895,1.846
		c1.646,0,2.924-0.465,3.8-1.381c1.423-1.488,1.342-3.681,1.341-3.703l-0.001-8.543h1v8.522c0.004,0.084,0.098,2.622-1.617,4.416
		C159.449,59.311,157.928,59.879,155.999,59.879z"/>
	<g>
		<g>
			<rect x="64.117" y="27.792" fill="#2D2D2D" width="35.616" height="21.944"/>
			<g>
				<path fill="#6DBB4C" d="M69.085,30.456c0,0.246-0.199,0.445-0.445,0.445l0,0c-0.245,0-0.443-0.199-0.443-0.445l0,0
					c0-0.246,0.198-0.445,0.443-0.445l0,0C68.886,30.011,69.085,30.21,69.085,30.456L69.085,30.456z"/>
				<path fill="#6DBB4C" d="M67.671,30.456c0,0.246-0.199,0.445-0.445,0.445l0,0c-0.246,0-0.445-0.199-0.445-0.445l0,0
					c0-0.246,0.199-0.445,0.445-0.445l0,0C67.472,30.011,67.671,30.21,67.671,30.456L67.671,30.456z"/>
				<path fill="#6DBB4C" d="M70.5,30.456c0,0.246-0.199,0.445-0.444,0.445l0,0c-0.246,0-0.445-0.199-0.445-0.445l0,0
					c0-0.246,0.199-0.445,0.445-0.445l0,0C70.301,30.011,70.5,30.21,70.5,30.456L70.5,30.456z"/>
				<path fill="#6DBB4C" d="M71.915,30.456c0,0.246-0.199,0.445-0.445,0.445l0,0c-0.245,0-0.444-0.199-0.444-0.445l0,0
					c0-0.246,0.199-0.445,0.444-0.445l0,0C71.716,30.011,71.915,30.21,71.915,30.456L71.915,30.456z"/>
				<path fill="#6DBB4C" d="M73.329,30.456c0,0.246-0.199,0.445-0.444,0.445l0,0c-0.245,0-0.444-0.199-0.444-0.445l0,0
					c0-0.246,0.199-0.445,0.444-0.445l0,0C73.13,30.011,73.329,30.21,73.329,30.456L73.329,30.456z"/>
			</g>
		</g>
		<path fill="#191818" d="M111.391,69.203c-7.833,0-18.247-0.95-18.247-9.166V49.736h1v10.301c0,7.319,9.843,8.166,17.247,8.166
			c2.122,0,3.813-0.662,5.027-1.967c2.546-2.738,2.234-7.449,2.23-7.496l-0.001-10.866h1v10.829
			c0.015,0.174,0.349,5.148-2.493,8.209C115.743,68.433,113.804,69.203,111.391,69.203z"/>
		<path fill="#191818" d="M125.111,72.232c-16.929,0-36.359-1.2-36.359-10.558V49.722h1v11.953c0,8.566,20.18,9.558,35.359,9.558
			c6.065,0,10.414-1.449,12.926-4.308c2.691-3.062,2.257-6.696,2.252-6.733l-0.004-12.63h1v12.566
			c0.018,0.104,0.49,4.06-2.497,7.458C136.078,70.668,131.477,72.232,125.111,72.232z"/>
		<path fill="#191818" d="M138.385,75.068c-25.001,0-53.699-1.348-53.699-11.86V49.706h1v13.502c0,9.735,30.076,10.86,52.699,10.86
			c12.747,0,18.255-3.354,20.63-6.167c2.645-3.132,2.139-6.325,2.133-6.356l-0.007-14.28l0.05-0.923l0.998,0.055l-0.049,0.896
			l0.001,14.169c0.019,0.064,0.579,3.604-2.361,7.086C156.125,72.875,148.927,75.068,138.385,75.068z"/>
		<g>
			<g>
				<rect x="116.604" y="30.312" fill="#518C51" width="11.979" height="17.25"/>
				<g>
					<rect x="126.708" y="31.312" width="1.016" height="11.547"/>
					<g>
						<g>
							<circle fill="#DABA39" cx="126.94" cy="31.558" r="0.145"/>
							<circle fill="#DABA39" cx="127.465" cy="31.558" r="0.145"/>
							<circle fill="#DABA39" cx="126.94" cy="32.083" r="0.144"/>
							<circle fill="#DABA39" cx="126.94" cy="32.608" r="0.145"/>
							<circle fill="#DABA39" cx="126.94" cy="33.134" r="0.144"/>
							<circle fill="#DABA39" cx="126.94" cy="33.659" r="0.144"/>
							<circle fill="#DABA39" cx="126.94" cy="34.184" r="0.144"/>
							<circle fill="#DABA39" cx="126.94" cy="34.709" r="0.145"/>
							<circle fill="#DABA39" cx="126.94" cy="35.234" r="0.144"/>
							<circle fill="#DABA39" cx="127.466" cy="32.083" r="0.144"/>
							<circle fill="#DABA39" cx="127.466" cy="32.608" r="0.145"/>
							<circle fill="#DABA39" cx="127.466" cy="33.134" r="0.144"/>
							<circle fill="#DABA39" cx="127.466" cy="33.659" r="0.144"/>
							<circle fill="#DABA39" cx="127.466" cy="34.184" r="0.144"/>
							<circle fill="#DABA39" cx="127.466" cy="34.709" r="0.145"/>
							<circle fill="#DABA39" cx="127.466" cy="35.234" r="0.144"/>
						</g>
						<g>
							<circle fill="#DABA39" cx="126.94" cy="35.759" r="0.144"/>
							<circle fill="#DABA39" cx="126.94" cy="36.284" r="0.145"/>
							<circle fill="#DABA39" cx="126.94" cy="36.809" r="0.144"/>
							<circle fill="#DABA39" cx="126.94" cy="37.334" r="0.145"/>
							<circle fill="#DABA39" cx="126.94" cy="37.859" r="0.144"/>
							<circle fill="#DABA39" cx="126.94" cy="38.384" r="0.144"/>
							<circle fill="#DABA39" cx="126.94" cy="38.909" r="0.145"/>
							<circle fill="#DABA39" cx="127.466" cy="35.759" r="0.144"/>
							<circle fill="#DABA39" cx="127.466" cy="36.284" r="0.145"/>
							<circle fill="#DABA39" cx="127.466" cy="36.809" r="0.144"/>
							<circle fill="#DABA39" cx="127.466" cy="37.334" r="0.145"/>
							<circle fill="#DABA39" cx="127.466" cy="37.859" r="0.144"/>
							<circle fill="#DABA39" cx="127.466" cy="38.384" r="0.144"/>
							<circle fill="#DABA39" cx="127.466" cy="38.909" r="0.145"/>
						</g>
					</g>
					<g>
						<g>
							<circle fill="#DABA39" cx="126.94" cy="38.908" r="0.145"/>
							<circle fill="#DABA39" cx="127.465" cy="38.908" r="0.145"/>
							<circle fill="#DABA39" cx="126.94" cy="39.434" r="0.144"/>
							<circle fill="#DABA39" cx="126.94" cy="39.958" r="0.145"/>
							<circle fill="#DABA39" cx="126.94" cy="40.484" r="0.144"/>
							<circle fill="#DABA39" cx="126.94" cy="41.009" r="0.144"/>
							<circle fill="#DABA39" cx="126.94" cy="41.534" r="0.144"/>
							<circle fill="#DABA39" cx="126.94" cy="42.059" r="0.145"/>
							<circle fill="#DABA39" cx="126.94" cy="42.584" r="0.144"/>
							<circle fill="#DABA39" cx="127.466" cy="39.434" r="0.144"/>
							<circle fill="#DABA39" cx="127.466" cy="39.958" r="0.145"/>
							<circle fill="#DABA39" cx="127.466" cy="40.484" r="0.144"/>
							<circle fill="#DABA39" cx="127.466" cy="41.009" r="0.144"/>
							<circle fill="#DABA39" cx="127.466" cy="41.534" r="0.144"/>
							<circle fill="#DABA39" cx="127.466" cy="42.059" r="0.145"/>
							<circle fill="#DABA39" cx="127.466" cy="42.584" r="0.144"/>
						</g>
					</g>
				</g>
				<rect x="121.146" y="45.333" fill="#A4A4A4" width="3" height="2.542"/>
				<rect x="117.646" y="44.124" fill="#A4A4A4" width="3" height="3.75"/>
				<rect x="116.65" y="31.265" fill="#A4A4A4" width="0.901" height="1.35"/>
				<rect x="116.65" y="38.089" fill="#A4A4A4" width="1.828" height="2.739"/>
				<rect x="124.465" y="45.333" fill="#A4A4A4" width="3" height="2.542"/>
				<rect x="121.354" y="36.615" fill="#121212" width="3.294" height="3.294"/>
			</g>
			<g>
				<rect x="138.243" y="30.312" fill="#518C51" width="11.979" height="17.25"/>
				<g>
					<rect x="148.348" y="31.312" width="1.016" height="11.547"/>
					<g>
						<g>
							<circle fill="#DABA39" cx="148.58" cy="31.558" r="0.145"/>
							<circle fill="#DABA39" cx="149.104" cy="31.558" r="0.145"/>
							<circle fill="#DABA39" cx="148.58" cy="32.083" r="0.144"/>
							<circle fill="#DABA39" cx="148.58" cy="32.608" r="0.145"/>
							<circle fill="#DABA39" cx="148.58" cy="33.134" r="0.144"/>
							<circle fill="#DABA39" cx="148.58" cy="33.659" r="0.144"/>
							<circle fill="#DABA39" cx="148.58" cy="34.184" r="0.144"/>
							<circle fill="#DABA39" cx="148.58" cy="34.709" r="0.145"/>
							<circle fill="#DABA39" cx="148.58" cy="35.234" r="0.144"/>
							<circle fill="#DABA39" cx="149.105" cy="32.083" r="0.144"/>
							<circle fill="#DABA39" cx="149.105" cy="32.608" r="0.145"/>
							<circle fill="#DABA39" cx="149.105" cy="33.134" r="0.144"/>
							<circle fill="#DABA39" cx="149.105" cy="33.659" r="0.144"/>
							<circle fill="#DABA39" cx="149.105" cy="34.184" r="0.144"/>
							<circle fill="#DABA39" cx="149.105" cy="34.709" r="0.145"/>
							<circle fill="#DABA39" cx="149.105" cy="35.234" r="0.144"/>
						</g>
						<g>
							<circle fill="#DABA39" cx="148.58" cy="35.759" r="0.144"/>
							<circle fill="#DABA39" cx="148.58" cy="36.284" r="0.145"/>
							<circle fill="#DABA39" cx="148.58" cy="36.809" r="0.144"/>
							<circle fill="#DABA39" cx="148.58" cy="37.334" r="0.145"/>
							<circle fill="#DABA39" cx="148.58" cy="37.859" r="0.144"/>
							<circle fill="#DABA39" cx="148.58" cy="38.384" r="0.144"/>
							<circle fill="#DABA39" cx="148.58" cy="38.909" r="0.145"/>
							<circle fill="#DABA39" cx="149.105" cy="35.759" r="0.144"/>
							<circle fill="#DABA39" cx="149.105" cy="36.284" r="0.145"/>
							<circle fill="#DABA39" cx="149.105" cy="36.809" r="0.144"/>
							<circle fill="#DABA39" cx="149.105" cy="37.334" r="0.145"/>
							<circle fill="#DABA39" cx="149.105" cy="37.859" r="0.144"/>
							<circle fill="#DABA39" cx="149.105" cy="38.384" r="0.144"/>
							<circle fill="#DABA39" cx="149.105" cy="38.909" r="0.145"/>
						</g>
					</g>
					<g>
						<g>
							<circle fill="#DABA39" cx="148.58" cy="38.908" r="0.145"/>
							<circle fill="#DABA39" cx="149.104" cy="38.908" r="0.145"/>
							<circle fill="#DABA39" cx="148.58" cy="39.434" r="0.144"/>
							<circle fill="#DABA39" cx="148.58" cy="39.958" r="0.145"/>
							<circle fill="#DABA39" cx="148.58" cy="40.484" r="0.144"/>
							<circle fill="#DABA39" cx="148.58" cy="41.009" r="0.144"/>
							<circle fill="#DABA39" cx="148.58" cy="41.534" r="0.144"/>
							<circle fill="#DABA39" cx="148.58" cy="42.059" r="0.145"/>
							<circle fill="#DABA39" cx="148.58" cy="42.584" r="0.144"/>
							<circle fill="#DABA39" cx="149.105" cy="39.434" r="0.144"/>
							<circle fill="#DABA39" cx="149.105" cy="39.958" r="0.145"/>
							<circle fill="#DABA39" cx="149.105" cy="40.484" r="0.144"/>
							<circle fill="#DABA39" cx="149.105" cy="41.009" r="0.144"/>
							<circle fill="#DABA39" cx="149.105" cy="41.534" r="0.144"/>
							<circle fill="#DABA39" cx="149.105" cy="42.059" r="0.145"/>
							<circle fill="#DABA39" cx="149.105" cy="42.584" r="0.144"/>
						</g>
					</g>
				</g>
				<rect x="142.785" y="45.333" fill="#A4A4A4" width="3" height="2.542"/>
				<rect x="139.285" y="44.124" fill="#A4A4A4" width="3" height="3.75"/>
				<rect x="138.29" y="31.265" fill="#A4A4A4" width="0.901" height="1.35"/>
				<rect x="138.29" y="38.089" fill="#A4A4A4" width="1.828" height="2.739"/>
				<rect x="146.104" y="45.333" fill="#A4A4A4" width="3" height="2.542"/>
				<rect x="142.993" y="36.615" fill="#121212" width="3.294" height="3.294"/>
			</g>
			<g>
				<g>
					<polygon fill="#359BAC" points="167.813,33.389 167.397,32.932 161.231,32.932 160.772,33.389 158.368,33.389 158.368,45.598 
						168.229,45.598 168.229,33.389 					"/>
					<rect x="164.48" y="33.767" width="1.458" height="6.691"/>
					<rect x="162.349" y="33.313" width="1.459" height="0.771"/>
					<rect x="160.147" y="43.99" fill="#727273" width="2.166" height="2.896"/>
					<rect x="165.938" y="43.464" width="1.584" height="2.476"/>
					<rect x="158.647" y="33.767" width="0.458" height="3.778"/>
					<rect x="167.522" y="33.72" width="0.458" height="2.852"/>
					<rect x="158.647" y="37.756" width="0.458" height="4.608"/>
					<rect x="167.522" y="37.02" width="0.458" height="3.642"/>
					<g>
						<ellipse fill="#DABA39" cx="163.595" cy="33.45" rx="0.143" ry="0.137"/>
						<ellipse fill="#DABA39" cx="163.595" cy="33.948" rx="0.143" ry="0.137"/>
						<circle fill="#DABA39" cx="163.078" cy="33.451" r="0.142"/>
						<circle fill="#DABA39" cx="162.562" cy="33.451" r="0.142"/>
						<circle fill="#DABA39" cx="163.078" cy="33.948" r="0.142"/>
						<circle fill="#DABA39" cx="162.562" cy="33.948" r="0.142"/>
					</g>
				</g>
				<g>
					<polygon fill="#216870" points="167.813,33.439 160.772,33.439 158.368,33.439 158.368,45.647 168.229,45.647 168.229,33.439 
											"/>
					<rect x="164.48" y="33.817" width="1.458" height="6.691"/>
					<rect x="159.829" y="43.568" fill="#727273" width="3.623" height="3.368"/>
					<rect x="158.647" y="33.817" width="0.458" height="3.778"/>
					<rect x="167.522" y="33.77" width="0.458" height="2.852"/>
					<rect x="158.647" y="37.806" width="0.458" height="4.608"/>
					<rect x="167.522" y="37.07" width="0.458" height="3.642"/>
				</g>
			</g>
		</g>
		<path fill="#191818" d="M55.986,69.249c-14.502,0-17.343-1.536-17.343-19.171h1c0,16.938,2.26,18.171,16.336,18.171
			c1.448-0.021,2.312-0.046,2.315-0.046c7.276,0,10.608-1.837,12.125-3.378c1.526-1.552,1.521-3.048,1.52-3.11V49.736h1v11.967
			c0.002,0.064,0.035,1.928-1.771,3.787c-2.394,2.464-6.719,3.713-12.858,3.713C58.307,69.203,57.438,69.229,55.986,69.249z"/>
		<path fill="#3E78B8" d="M47.917,40.684c-0.028,0-0.055,0.008-0.082,0.008c0.049-0.414,0.082-0.832,0.082-1.258
			c0-5.799-4.7-10.5-10.5-10.5c-4.582,0-8.467,2.938-9.901,7.03c-0.197-0.017-0.396-0.03-0.599-0.03c-3.866,0-7,3.134-7,7
			s3.134,7,7,7c0.288,0,0.571-0.023,0.851-0.057h8.56c0.358,0.037,0.722,0.057,1.09,0.057s0.731-0.02,1.09-0.057h8.849
			c0.187,0.023,0.369,0.057,0.562,0.057c2.555,0,4.625-2.071,4.625-4.625S50.472,40.684,47.917,40.684z"/>
	</g>
</g>
</svg>
